# xmcd CD database file
#
# Track frame offsets:
#	150
#	11664
#	27915
#	41164
#	52918
#	73514
#	88225
#	106230
#	118257
#	132164
#	145132
#	158096
#	168905
#	182065
#	193525
#	211876
#	224321
#	239021
#	250025
#	261943
#	276824
#
# Disc length: 3876 seconds
#
# Revision: 0
# Processed by: cddbd v1.5.1PL0 Copyright (c) Steve Scherf et al.
# Submitted via: CDex 1.51
#
DISCID=320f2215
DTITLE=Various Artist - The Country Divas Collection
DYEAR=2000
DGENRE=Country
TTITLE0=Crystal Gayle - Dont It Make My Brown Eyes Blue
TTITLE1=Billie Jo Spears - Blanket on the Ground
TTITLE2=Tanya Tucker - San Antonio Stroll
TTITLE3=Lacy j. Dalton - Love Hurts
TTITLE4=Suzy Bogguss - Take It To The Limit
TTITLE5=Olivia Newton John - Banks of the Ohio
TTITLE6=Dottie West - Hey Mr. Dream Maker
TTITLE7=Wanda Jackson - Stand by Your Man
TTITLE8=Juice Newton - All I Have to do is dream
TTITLE9=Barbara Mandrell - I Wish that I Could Fall in Love Today
TTITLE10=Bobbie Gentry - Ill Never Fall in Love Again
TTITLE11=Crystal Gayle - Somebody Loves You 
TTITLE12=Deana Carter - If this is Love
TTITLE13=Linda Davis - Do I Do it to You Too
TTITLE14=Susan Ashton - Think of Me
TTITLE15=Billie Jo Spears - What Ive Got In Mind
TTITLE16=Gail Davies - Im a Little bit Lonely
TTITLE17=Julie Reeves - Whatever
TTITLE18=Wanda Jackson - Crazy
TTITLE19=Tanya Tucker - Something
TTITLE20=Bobbie Gentry - Raindrops Keep Falling on My Head
EXTD=YEAR: 2000
EXTT0=
EXTT1=
EXTT2=
EXTT3=
EXTT4=
EXTT5=
EXTT6=
EXTT7=
EXTT8=
EXTT9=
EXTT10=
EXTT11=
EXTT12=
EXTT13=
EXTT14=
EXTT15=
EXTT16=
EXTT17=
EXTT18=
EXTT19=
EXTT20=
PLAYORDER=
